<svg width="26" height="26" viewBox="0 0 26 26" fill="none" xmlns="http://www.w3.org/2000/svg">
<path d="M10.3676 20.3882C10.1617 20.3882 9.95589 20.3124 9.79339 20.1499L3.21756 13.574C2.90339 13.2599 2.90339 12.7399 3.21756 12.4257L9.79339 5.84988C10.1076 5.53572 10.6276 5.53572 10.9417 5.84988C11.2559 6.16405 11.2559 6.68405 10.9417 6.99822L4.94006 12.9999L10.9417 19.0015C11.2559 19.3157 11.2559 19.8357 10.9417 20.1499C10.7901 20.3124 10.5734 20.3882 10.3676 20.3882Z" fill="#8089A9"/>
<path d="M22.2086 13.8125H3.97607C3.53191 13.8125 3.16357 13.4442 3.16357 13C3.16357 12.5558 3.53191 12.1875 3.97607 12.1875H22.2086C22.6527 12.1875 23.0211 12.5558 23.0211 13C23.0211 13.4442 22.6527 13.8125 22.2086 13.8125Z" fill="#8089A9"/>
</svg>
