<svg width="16" height="16" viewBox="0 0 16 16" fill="none" xmlns="http://www.w3.org/2000/svg">
<path d="M9.46612 8.00019L15.6964 1.76974C16.1018 1.36447 16.1018 0.709214 15.6964 0.303949C15.2911 -0.101316 14.6359 -0.101316 14.2306 0.303949L8.00014 6.5344L1.76988 0.303949C1.36442 -0.101316 0.709356 -0.101316 0.304091 0.303949C-0.101364 0.709214 -0.101364 1.36447 0.304091 1.76974L6.53435 8.00019L0.304091 14.2306C-0.101364 14.6359 -0.101364 15.2912 0.304091 15.6964C0.506059 15.8986 0.771617 16.0001 1.03699 16.0001C1.30235 16.0001 1.56772 15.8986 1.76988 15.6964L8.00014 9.46598L14.2306 15.6964C14.4328 15.8986 14.6981 16.0001 14.9635 16.0001C15.2289 16.0001 15.4942 15.8986 15.6964 15.6964C16.1018 15.2912 16.1018 14.6359 15.6964 14.2306L9.46612 8.00019Z" fill="#8089A9"/>
</svg>
