<svg width="187" height="50" viewBox="0 0 187 50" fill="none" xmlns="http://www.w3.org/2000/svg">
<path d="M1 26C1 12.7452 11.7452 2 25 2H163C176.255 2 187 12.7452 187 26C187 39.2548 176.255 50 163 50H25C11.7452 50 1 39.2548 1 26Z" fill="#CD433B"/>
<g filter="url(#filter0_i_4698_27921)">
<path d="M0 24C0 10.7452 10.7452 0 24 0H162C175.255 0 186 10.7452 186 24C186 37.2548 175.255 48 162 48H24C10.7452 48 0 37.2548 0 24Z" fill="url(#paint0_linear_4698_27921)"/>
</g>
<defs>
<filter id="filter0_i_4698_27921" x="0" y="0" width="186" height="48" filterUnits="userSpaceOnUse" color-interpolation-filters="sRGB">
<feFlood flood-opacity="0" result="BackgroundImageFix"/>
<feBlend mode="normal" in="SourceGraphic" in2="BackgroundImageFix" result="shape"/>
<feColorMatrix in="SourceAlpha" type="matrix" values="0 0 0 0 0 0 0 0 0 0 0 0 0 0 0 0 0 0 127 0" result="hardAlpha"/>
<feOffset dx="1" dy="1"/>
<feComposite in2="hardAlpha" operator="arithmetic" k2="-1" k3="1"/>
<feColorMatrix type="matrix" values="0 0 0 0 0.921569 0 0 0 0 0.964706 0 0 0 0 0.835294 0 0 0 1 0"/>
<feBlend mode="normal" in2="shape" result="effect1_innerShadow_4698_27921"/>
</filter>
<linearGradient id="paint0_linear_4698_27921" x1="5.62326" y1="6.54544" x2="178.492" y2="31.1867" gradientUnits="userSpaceOnUse">
<stop stop-color="#FFD84E"/>
<stop offset="1" stop-color="#ECAB5B"/>
</linearGradient>
</defs>
</svg>
