<svg width="24" height="24" viewBox="0 0 24 24" fill="none" xmlns="http://www.w3.org/2000/svg">
<path fill-rule="evenodd" clip-rule="evenodd" d="M0 12C0 5.37258 5.37258 0 12 0C18.6274 0 24 5.37258 24 12C24 18.6274 18.6274 24 12 24C5.37258 24 0 18.6274 0 12Z" fill="#0077B5"/>
<path fill-rule="evenodd" clip-rule="evenodd" d="M8.65997 7.41135C8.64232 6.6102 8.06941 6 7.1391 6C6.20879 6 5.60059 6.6102 5.60059 7.41135C5.60059 8.1959 6.19081 8.82367 7.1038 8.82367H7.12118C8.06941 8.82367 8.65997 8.1959 8.65997 7.41135ZM8.48118 9.93945H5.76172V18.1103H8.48118V9.93945ZM15.1573 9.74707C16.9469 9.74707 18.2885 10.9151 18.2885 13.4249L18.2884 18.1098H15.569V13.7384C15.569 12.6404 15.1755 11.8911 14.191 11.8911C13.4397 11.8911 12.9922 12.3962 12.7957 12.8841C12.7238 13.0589 12.7061 13.3025 12.7061 13.5467V18.11H9.98633C9.98633 18.11 10.0222 10.7059 9.98633 9.93915H12.7061V11.0965C13.0671 10.5401 13.7135 9.74707 15.1573 9.74707Z" fill="white"/>
<g clip-path="url(#clip0_9600_53792)">
<path d="M24 12C24 5.37258 18.6274 0 12 0C5.37258 0 0 5.37258 0 12C0 17.9895 4.3882 22.954 10.125 23.8542V15.4688H7.07812V12H10.125V9.35625C10.125 6.34875 11.9166 4.6875 14.6576 4.6875C15.9701 4.6875 17.3438 4.92188 17.3438 4.92188V7.875H15.8306C14.34 7.875 13.875 8.80008 13.875 9.75V12H17.2031L16.6711 15.4688H13.875V23.8542C19.6118 22.954 24 17.9895 24 12Z" fill="#1877F2"/>
<path d="M16.6711 15.4688L17.2031 12H13.875V9.75C13.875 8.80102 14.34 7.875 15.8306 7.875H17.3438V4.92188C17.3438 4.92188 15.9705 4.6875 14.6576 4.6875C11.9166 4.6875 10.125 6.34875 10.125 9.35625V12H7.07812V15.4688H10.125V23.8542C11.3674 24.0486 12.6326 24.0486 13.875 23.8542V15.4688H16.6711Z" fill="white"/>
</g>
<circle cx="12" cy="12" r="12" fill="#5865F2"/>
<path d="M16.1585 8.07852C15.3937 7.72758 14.5735 7.46902 13.7159 7.32093C13.7003 7.31808 13.6847 7.32522 13.6767 7.3395C13.5712 7.52711 13.4544 7.77186 13.3725 7.96423C12.4502 7.82615 11.5326 7.82615 10.6292 7.96423C10.5473 7.76758 10.4262 7.52711 10.3203 7.3395C10.3122 7.32569 10.2966 7.31855 10.281 7.32093C9.42395 7.46855 8.60378 7.7271 7.83847 8.07852C7.83184 8.08138 7.82616 8.08614 7.82239 8.09233C6.2667 10.4165 5.84052 12.6836 6.04959 14.9225C6.05054 14.9335 6.05668 14.9439 6.0652 14.9506C7.0916 15.7044 8.08585 16.162 9.06164 16.4653C9.07726 16.4701 9.0938 16.4643 9.10374 16.4515C9.33456 16.1363 9.54032 15.8039 9.71674 15.4544C9.72715 15.4339 9.71721 15.4096 9.69593 15.4015C9.36957 15.2777 9.0588 15.1268 8.75986 14.9554C8.73622 14.9416 8.73433 14.9077 8.75608 14.8915C8.81899 14.8444 8.88191 14.7954 8.94198 14.7458C8.95285 14.7368 8.96799 14.7349 8.98077 14.7406C10.9446 15.6372 13.0708 15.6372 15.0115 14.7406C15.0243 14.7344 15.0394 14.7363 15.0507 14.7454C15.1108 14.7949 15.1737 14.8444 15.2371 14.8915C15.2589 14.9077 15.2574 14.9416 15.2338 14.9554C14.9349 15.1301 14.6241 15.2777 14.2973 15.4011C14.276 15.4092 14.2665 15.4339 14.2769 15.4544C14.4571 15.8034 14.6629 16.1358 14.8894 16.451C14.8989 16.4643 14.9159 16.4701 14.9315 16.4653C15.9121 16.162 16.9063 15.7044 17.9327 14.9506C17.9417 14.9439 17.9474 14.9339 17.9483 14.923C18.1985 12.3345 17.5292 10.0861 16.1741 8.0928C16.1708 8.08614 16.1651 8.08138 16.1585 8.07852ZM10.01 13.5592C9.41875 13.5592 8.93157 13.0164 8.93157 12.3498C8.93157 11.6831 9.4093 11.1403 10.01 11.1403C10.6154 11.1403 11.0979 11.6879 11.0884 12.3498C11.0884 13.0164 10.6107 13.5592 10.01 13.5592ZM13.9974 13.5592C13.4061 13.5592 12.9189 13.0164 12.9189 12.3498C12.9189 11.6831 13.3967 11.1403 13.9974 11.1403C14.6028 11.1403 15.0853 11.6879 15.0758 12.3498C15.0758 13.0164 14.6028 13.5592 13.9974 13.5592Z" fill="white"/>
<defs>
<clipPath id="clip0_9600_53792">
<rect width="24" height="24" fill="white"/>
</clipPath>
</defs>
</svg>
