<svg width="18" height="18" viewBox="0 0 18 18" fill="none" xmlns="http://www.w3.org/2000/svg">
<path d="M8.58461 17.144C13.3277 17.144 17.1692 13.3034 17.1692 8.58348C17.1692 3.86352 13.3277 0 8.58461 0C3.8415 0 0 3.8406 0 8.56056C0 13.2805 3.8415 17.144 8.58461 17.144Z" fill="url(#paint0_linear_5741_33632)"/>
<path fill-rule="evenodd" clip-rule="evenodd" d="M8.58445 1.11102C4.46609 1.11102 1.11135 4.44284 1.11135 8.58413C1.11135 12.7025 4.46609 16.0575 8.58445 16.0575C12.7028 16.0575 16.0576 12.725 16.0576 8.58345C16.0576 4.44194 12.7028 1.11102 8.58445 1.11102ZM0.879883 8.56053C0.879883 4.30328 4.32721 0.855957 8.58445 0.855957C12.8417 0.855957 16.289 4.30328 16.289 8.56053C16.289 12.8178 12.8417 16.2649 8.58445 16.2649C4.32721 16.2649 0.879883 12.8176 0.879883 8.56053Z" fill="white"/>
<path d="M12.8223 2.12748C12.8312 2.12748 12.8398 2.12393 12.8461 2.1176C12.8524 2.11128 12.856 2.10271 12.856 2.09377C12.856 2.08483 12.8524 2.07625 12.8461 2.06993C12.8398 2.06361 12.8312 2.06006 12.8223 2.06006C12.8133 2.06006 12.8048 2.06361 12.7984 2.06993C12.7921 2.07625 12.7886 2.08483 12.7886 2.09377C12.7886 2.10271 12.7921 2.11128 12.7984 2.1176C12.8048 2.12393 12.8133 2.12748 12.8223 2.12748Z" fill="#BA9672"/>
<path d="M8.53068 11.4153C7.50727 11.4153 6.54297 11.2773 5.81597 11.027C5.04538 10.7618 4.62109 10.3912 4.62109 9.98358C4.62109 9.62626 4.93841 9.30221 5.53843 9.04647C5.5542 9.03959 5.57118 9.03591 5.58838 9.03563C5.60558 9.03534 5.62267 9.03847 5.63866 9.04482C5.65465 9.05118 5.66922 9.06064 5.68153 9.07265C5.69385 9.08466 5.70366 9.099 5.71041 9.11482C5.71716 9.13065 5.72071 9.14765 5.72085 9.16486C5.721 9.18206 5.71774 9.19912 5.71125 9.21506C5.70477 9.231 5.6952 9.24549 5.68309 9.25771C5.67097 9.26993 5.65656 9.27963 5.64068 9.28625C5.15123 9.4948 4.88178 9.74245 4.88178 9.98291C4.88178 10.2665 5.25325 10.5569 5.90092 10.7798C6.6014 11.0212 7.53536 11.154 8.53024 11.154C9.52511 11.154 10.4597 11.0212 11.1596 10.7798C11.807 10.5569 12.1785 10.2665 12.1785 9.98291C12.1785 9.73728 11.8863 9.47637 11.3757 9.26715C11.3595 9.26092 11.3447 9.25152 11.3322 9.2395C11.3197 9.22747 11.3097 9.21307 11.3028 9.19713C11.2959 9.18118 11.2923 9.16403 11.2922 9.14667C11.292 9.12931 11.2953 9.11209 11.3019 9.09603C11.3085 9.07996 11.3182 9.06538 11.3305 9.05313C11.3428 9.04087 11.3574 9.0312 11.3735 9.02468C11.3896 9.01816 11.4068 9.01492 11.4242 9.01515C11.4416 9.01538 11.4587 9.01907 11.4746 9.02602C12.1057 9.28468 12.4392 9.6157 12.4392 9.98291C12.4392 10.3906 12.0149 10.7611 11.2443 11.0263C10.5184 11.2773 9.55432 11.4153 8.53068 11.4153Z" fill="white"/>
<path d="M8.50876 10.6865C7.9638 10.6865 7.44962 10.6119 7.06107 10.4767C6.50779 10.2841 6.3916 10.0375 6.3916 9.86449C6.39179 9.8098 6.40342 9.75576 6.42576 9.70584C6.43268 9.69018 6.44262 9.67604 6.455 9.66422C6.46739 9.65241 6.48198 9.64315 6.49794 9.63697C6.51391 9.63079 6.53093 9.62782 6.54804 9.62822C6.56516 9.62863 6.58202 9.6324 6.59768 9.63932C6.61333 9.64624 6.62747 9.65617 6.63929 9.66856C6.6511 9.68094 6.66037 9.69553 6.66654 9.7115C6.67272 9.72746 6.67569 9.74449 6.67529 9.7616C6.67489 9.77871 6.67112 9.79558 6.6642 9.81123C6.65651 9.82795 6.65245 9.8461 6.65229 9.86449C6.65229 9.95821 6.78218 10.1036 7.14669 10.2306C7.5112 10.3575 7.99234 10.4259 8.50876 10.4259C9.02519 10.4259 9.50903 10.3564 9.87084 10.2306C10.2327 10.1047 10.3652 9.95821 10.3652 9.86449C10.3649 9.84214 10.359 9.82023 10.3482 9.80067C10.3399 9.78545 10.3347 9.76873 10.3329 9.75148C10.3312 9.73424 10.3329 9.71682 10.3379 9.70023C10.343 9.68365 10.3513 9.66825 10.3624 9.65492C10.3734 9.64159 10.3871 9.6306 10.4025 9.62261C10.4178 9.61461 10.4347 9.60976 10.4519 9.60835C10.4692 9.60693 10.4866 9.60897 10.5031 9.61436C10.5196 9.61975 10.5348 9.62836 10.5479 9.63971C10.561 9.65106 10.5717 9.6649 10.5794 9.68044C10.6097 9.73709 10.6256 9.80027 10.6259 9.86449C10.6259 10.0375 10.5097 10.2841 9.95646 10.4767C9.56791 10.6119 9.05373 10.6865 8.50876 10.6865Z" fill="white"/>
<path d="M8.5267 7.31627C7.7042 7.31627 6.92979 7.24615 6.34572 7.11896C5.67648 6.97311 5.35107 6.77782 5.35107 6.5223C5.35107 6.30567 5.58457 6.13352 6.06459 5.99577C6.47089 5.87936 7.02215 5.79621 7.65858 5.75531C7.69309 5.7531 7.72706 5.7647 7.75302 5.78754C7.77898 5.81038 7.79481 5.8426 7.79701 5.87711C7.79922 5.91162 7.78762 5.94559 7.76478 5.97155C7.74194 5.99751 7.70972 6.01334 7.67521 6.01554C7.06597 6.05465 6.51966 6.13645 6.1365 6.24656C5.70794 6.36971 5.61176 6.48972 5.61176 6.5223C5.61176 6.54141 5.64704 6.59602 5.78053 6.66478C5.92166 6.73737 6.13627 6.80636 6.40123 6.86412C6.96754 6.98749 7.7224 7.05558 8.5267 7.05558C9.33101 7.05558 10.0861 6.98817 10.6524 6.86412C10.9171 6.80636 11.1318 6.73737 11.2731 6.66478C11.4066 6.59602 11.4419 6.54141 11.4419 6.5223C11.4419 6.48949 11.3448 6.36859 10.9133 6.24544C10.5275 6.1351 9.97777 6.0533 9.36539 6.01464C9.33088 6.01247 9.29865 5.99667 9.27578 5.97073C9.25292 5.94479 9.2413 5.91083 9.24347 5.87632C9.24565 5.84181 9.26144 5.80958 9.28738 5.78672C9.31332 5.76386 9.34728 5.75223 9.38179 5.75441C10.0214 5.79486 10.5758 5.87778 10.9848 5.99464C11.4677 6.1324 11.7026 6.30499 11.7026 6.5223C11.7026 6.77782 11.3772 6.97311 10.7079 7.11896C10.1238 7.24615 9.34853 7.31627 8.5267 7.31627Z" fill="white"/>
<path d="M8.59727 10.1595C7.70443 10.1595 6.97316 9.88561 6.42258 9.34491C5.86705 8.79927 5.60547 8.07969 5.48366 7.57203C5.35265 7.02504 5.35107 6.6093 5.35107 6.59177C5.35107 6.5572 5.36481 6.52405 5.38925 6.4996C5.41369 6.47516 5.44685 6.46143 5.48142 6.46143C5.51599 6.46143 5.54914 6.47516 5.57358 6.4996C5.59803 6.52405 5.61176 6.5572 5.61176 6.59177C5.62147 6.90423 5.6641 7.2148 5.73895 7.51832C5.85312 7.99025 6.09627 8.65971 6.6064 9.15883C7.12148 9.66402 7.81701 9.91257 8.6721 9.89707H8.67435C8.70892 9.89677 8.74219 9.91021 8.76685 9.93445C8.7915 9.95868 8.80552 9.99172 8.80582 10.0263C8.80611 10.0609 8.79267 10.0941 8.76844 10.1188C8.7442 10.1434 8.71117 10.1575 8.6766 10.1578L8.59727 10.1595Z" fill="white"/>
<path d="M8.43804 10.1596H8.35826C8.34107 10.1595 8.32406 10.1561 8.30822 10.1494C8.29237 10.1427 8.27799 10.133 8.26589 10.1208C8.2538 10.1086 8.24423 10.0941 8.23774 10.0782C8.23124 10.0623 8.22794 10.0452 8.22803 10.028C8.22812 10.0109 8.23159 9.99385 8.23825 9.97801C8.24491 9.96216 8.25463 9.94778 8.26685 9.93568C8.27907 9.92359 8.29355 9.91402 8.30946 9.90753C8.32538 9.90103 8.34242 9.89773 8.35961 9.89782H8.36208C9.21739 9.9131 9.9127 9.66478 10.4278 9.15959C10.9379 8.65934 11.1811 7.991 11.2952 7.51907C11.3701 7.21555 11.4127 6.90498 11.4224 6.59252C11.4225 6.55799 11.4362 6.52489 11.4607 6.5005C11.4851 6.4761 11.5182 6.4624 11.5528 6.4624C11.5699 6.46237 11.5868 6.46572 11.6026 6.47224C11.6184 6.47877 11.6328 6.48835 11.6449 6.50043C11.657 6.51252 11.6666 6.52687 11.6732 6.54267C11.6797 6.55848 11.6831 6.57541 11.6831 6.59252C11.6831 6.61005 11.6815 7.0258 11.5505 7.57278C11.4287 8.08044 11.1671 8.80002 10.6118 9.34566C10.0619 9.88568 9.33066 10.1596 8.43804 10.1596Z" fill="white"/>
<path d="M7.47305 9.41686C7.44426 9.41682 7.41629 9.40726 7.39349 9.38967C6.40716 8.62964 6.18266 7.60263 6.17367 7.55926C6.16658 7.52541 6.17322 7.49012 6.19215 7.46117C6.21107 7.43221 6.24072 7.41196 6.27457 7.40487C6.30843 7.39778 6.34371 7.40443 6.37266 7.42335C6.40162 7.44227 6.42187 7.47192 6.42896 7.50577C6.43166 7.51903 6.6474 8.48559 7.5526 9.18314C7.57421 9.19974 7.59007 9.22268 7.59796 9.24876C7.60586 9.27484 7.60538 9.30273 7.5966 9.32852C7.58782 9.35431 7.57118 9.3767 7.54902 9.39255C7.52686 9.40839 7.50029 9.4169 7.47305 9.41686Z" fill="white"/>
<path d="M10.8253 9.02887C10.7924 9.02892 10.7606 9.01647 10.7365 8.99404C10.7123 8.97162 10.6976 8.94087 10.6952 8.90799C10.6928 8.87512 10.7029 8.84256 10.7236 8.81687C10.7442 8.79118 10.7738 8.77427 10.8065 8.76954C11.9009 8.60728 12.402 7.77017 12.4569 7.67197C12.5151 7.4778 12.5553 7.22588 12.4288 7.10138C12.3202 6.99463 12.1142 6.99014 11.9582 7.00497C11.8412 7.01697 11.7256 7.04023 11.613 7.07441C11.5809 7.08276 11.5469 7.07856 11.5178 7.06268C11.4887 7.04679 11.4667 7.02041 11.4564 6.98891C11.446 6.95741 11.4481 6.92315 11.4621 6.89311C11.4761 6.86307 11.5011 6.8395 11.5319 6.82721C11.6078 6.80227 12.2829 6.5935 12.6106 6.91598C12.7904 7.09172 12.8203 7.37622 12.7016 7.76163C12.6992 7.76935 12.6962 7.77686 12.6926 7.7841C12.687 7.79489 12.5504 8.05378 12.2546 8.33738C11.8677 8.70891 11.3747 8.95061 10.844 9.02887C10.8378 9.02928 10.8316 9.02928 10.8253 9.02887Z" fill="white"/>
<path d="M7.92671 6.572C7.9002 6.57203 7.87431 6.56396 7.8525 6.54889C7.83069 6.53381 7.81399 6.51245 7.80464 6.48764C7.79528 6.46283 7.79372 6.43576 7.80015 6.41003C7.80659 6.38431 7.82071 6.36116 7.84064 6.34368C8.08672 6.12794 8.15998 5.8904 8.05863 5.63758C8.02855 5.56547 7.98611 5.49915 7.93323 5.44162C7.72716 5.2115 7.63479 4.97351 7.65839 4.7344C7.69367 4.37866 7.97773 4.1618 7.98986 4.15258C8.01749 4.13172 8.05227 4.12269 8.08655 4.12747C8.12084 4.13226 8.15182 4.15046 8.17268 4.17809C8.19354 4.20571 8.20257 4.24049 8.19779 4.27478C8.193 4.30906 8.1748 4.34004 8.14717 4.3609C8.14313 4.36405 7.94065 4.52271 7.91817 4.76227C7.90289 4.92497 7.97346 5.09509 8.12785 5.26768C8.20115 5.34784 8.2598 5.44026 8.30111 5.54073C8.38381 5.7468 8.4564 6.15086 8.01301 6.53964C7.98921 6.56069 7.95848 6.57221 7.92671 6.572Z" fill="white"/>
<path d="M8.97781 5.79144C8.95321 5.79136 8.92913 5.78432 8.90835 5.77114C8.88757 5.75796 8.87093 5.73918 8.86036 5.71696C8.84979 5.69474 8.84572 5.66999 8.8486 5.64555C8.85149 5.62112 8.86123 5.59799 8.87668 5.57885C9.17063 5.21704 9.12389 4.88219 9.03399 4.66376C8.99739 4.57739 8.94733 4.49737 8.88567 4.42667C8.52431 4.00665 8.52611 3.6208 8.59353 3.37045C8.63711 3.20533 8.71825 3.05251 8.83061 2.92391C8.85446 2.89882 8.88729 2.88423 8.92189 2.88334C8.95649 2.88246 8.99002 2.89535 9.01512 2.9192C9.04021 2.94304 9.0548 2.97587 9.05569 3.01047C9.05657 3.04507 9.04368 3.07861 9.01984 3.1037C8.99916 3.12617 8.54409 3.62911 9.08411 4.25633C9.16368 4.34798 9.22823 4.45167 9.27535 4.56353C9.37176 4.79545 9.47446 5.25681 9.07984 5.7429C9.06755 5.75812 9.05201 5.77038 9.03435 5.77878C9.01669 5.78718 8.99737 5.79151 8.97781 5.79144Z" fill="white"/>
<path d="M5.54794 13.6454C5.53195 13.6467 5.51587 13.6441 5.50113 13.6377C5.48639 13.6314 5.47345 13.6215 5.46345 13.6089C5.45455 13.596 5.44882 13.5811 5.44671 13.5654C5.4446 13.5498 5.44618 13.5339 5.45131 13.5191L5.77245 12.3201C5.78219 12.2843 5.80343 12.2528 5.8329 12.2302C5.86099 12.2069 5.89635 12.194 5.9329 12.1938H6.60709C6.62233 12.1928 6.6376 12.1953 6.65166 12.2013C6.66572 12.2073 6.67817 12.2165 6.68799 12.2282C6.69719 12.2407 6.70317 12.2553 6.7054 12.2707C6.70763 12.286 6.70605 12.3017 6.7008 12.3163C6.6909 12.3489 6.67052 12.3774 6.64282 12.3972C6.61453 12.42 6.57934 12.4324 6.54304 12.4325H5.98302L6.00841 12.4076L5.89605 12.8244L5.88886 12.7975H6.35135C6.36657 12.7964 6.38182 12.7989 6.39588 12.8049C6.40994 12.8108 6.4224 12.82 6.43225 12.8316C6.44143 12.8442 6.4474 12.8588 6.44963 12.8742C6.45186 12.8896 6.45029 12.9053 6.44506 12.9199C6.43516 12.9525 6.41478 12.981 6.38708 13.0008C6.35874 13.0235 6.32358 13.0359 6.2873 13.0361H5.82054L5.84301 13.0172L5.70817 13.5193C5.69749 13.5546 5.67612 13.5857 5.64703 13.6083C5.61793 13.631 5.58253 13.6441 5.5457 13.6458L5.54794 13.6454Z" fill="white"/>
<path d="M6.97879 12.4336C6.93294 12.4336 6.90261 12.4261 6.88777 12.4112C6.87294 12.3963 6.87069 12.37 6.88058 12.3323L6.89092 12.2941C6.89394 12.2779 6.90017 12.2625 6.90925 12.2488C6.91832 12.2351 6.93004 12.2234 6.94373 12.2143C6.97508 12.1981 7.01008 12.1904 7.04531 12.1918C7.09228 12.1918 7.12329 12.1992 7.13812 12.2143C7.15295 12.2293 7.15542 12.2554 7.14531 12.2932L7.1352 12.3314C7.12918 12.3637 7.1106 12.3924 7.08351 12.4112C7.05115 12.4276 7.01506 12.4354 6.97879 12.4336ZM6.81024 13.522C6.80112 13.5568 6.78083 13.5877 6.75249 13.6098C6.72558 13.6326 6.69152 13.6451 6.6563 13.6451C6.64145 13.6463 6.62656 13.6436 6.613 13.6375C6.59945 13.6313 6.58767 13.6218 6.57877 13.6098C6.57043 13.597 6.56512 13.5824 6.56325 13.5672C6.56138 13.5519 6.563 13.5365 6.56799 13.522L6.79271 12.688C6.80183 12.6532 6.82212 12.6223 6.85047 12.6001C6.87745 12.5774 6.91159 12.5649 6.94688 12.5649C6.96169 12.5637 6.97655 12.5664 6.99007 12.5726C7.00358 12.5787 7.01532 12.5882 7.02418 12.6001C7.03257 12.613 7.03791 12.6276 7.03978 12.6428C7.04165 12.6581 7.04 12.6735 7.03497 12.688L6.81024 13.522Z" fill="white"/>
<path d="M8.39734 12.3004C8.41374 12.3078 8.42798 12.3193 8.43875 12.3338C8.44951 12.3483 8.45645 12.3652 8.45892 12.3831C8.46205 12.4013 8.46105 12.42 8.456 12.4378C8.45094 12.4556 8.44196 12.4721 8.4297 12.486C8.42217 12.4973 8.41221 12.5068 8.40055 12.5138C8.38889 12.5208 8.37582 12.5251 8.36228 12.5264C8.33338 12.5289 8.30438 12.5233 8.27846 12.5102C8.14901 12.453 8.0023 12.4487 7.86968 12.4981C7.8143 12.5197 7.7643 12.5532 7.72316 12.5961C7.68234 12.6392 7.65103 12.6904 7.63124 12.7464C7.60976 12.8081 7.59918 12.8731 7.60001 12.9384C7.5984 13.0113 7.61037 13.0839 7.63529 13.1525C7.65652 13.2095 7.68997 13.2611 7.73327 13.3038C7.77509 13.3443 7.82546 13.3751 7.88069 13.3937C7.93989 13.4137 8.00203 13.4236 8.06452 13.4231C8.10108 13.4231 8.13757 13.4197 8.17351 13.413C8.21011 13.4061 8.24549 13.3939 8.27846 13.3766C8.30433 13.3635 8.33355 13.3586 8.36228 13.3624C8.37613 13.3645 8.38942 13.3694 8.40138 13.3767C8.41334 13.3839 8.42373 13.3935 8.43195 13.4049C8.44448 13.4188 8.45363 13.4354 8.4587 13.4534C8.46377 13.4714 8.46461 13.4903 8.46116 13.5087C8.45803 13.5257 8.45078 13.5417 8.44005 13.5553C8.42931 13.5688 8.41542 13.5795 8.39959 13.5865C8.36481 13.6039 8.32866 13.6185 8.29149 13.6301C8.2547 13.6414 8.21715 13.6501 8.17913 13.6561C8.14108 13.6623 8.10261 13.6653 8.06407 13.6654C7.97016 13.6659 7.87686 13.6501 7.78833 13.6188C7.70274 13.5886 7.62388 13.542 7.55618 13.4815C7.48641 13.4187 7.43152 13.341 7.3955 13.2543C7.35479 13.1541 7.33491 13.0466 7.33707 12.9384C7.33602 12.8402 7.35419 12.7428 7.39056 12.6516C7.42485 12.5662 7.47641 12.4889 7.54203 12.4244C7.60843 12.3597 7.68704 12.3089 7.77327 12.275C7.86588 12.2387 7.9646 12.2205 8.06407 12.2215C8.12249 12.2214 8.18072 12.2282 8.23756 12.2417C8.293 12.2547 8.34666 12.2744 8.39734 12.3004Z" fill="white"/>
<path d="M9.5382 12.5447C9.55424 12.5442 9.57022 12.547 9.58514 12.5529C9.60006 12.5588 9.61361 12.5678 9.62495 12.5791C9.63657 12.5909 9.64563 12.605 9.65155 12.6205C9.65746 12.6359 9.66011 12.6525 9.65933 12.669V13.523C9.65977 13.5392 9.65695 13.5553 9.65105 13.5704C9.64514 13.5855 9.63627 13.5992 9.62495 13.6108C9.60174 13.6335 9.57061 13.6461 9.5382 13.6461C9.50579 13.6461 9.47467 13.6335 9.45146 13.6108C9.44014 13.5992 9.43126 13.5855 9.42536 13.5704C9.41945 13.5553 9.41663 13.5392 9.41707 13.523V13.4241L9.46202 13.4421C9.45951 13.4657 9.44969 13.4879 9.43393 13.5057C9.4119 13.5337 9.38603 13.5586 9.35707 13.5794C9.32211 13.6051 9.28377 13.6259 9.24313 13.6412C9.19758 13.6582 9.14929 13.6667 9.10066 13.6664C9.01136 13.6674 8.92369 13.6425 8.84829 13.5947C8.77197 13.546 8.71024 13.4776 8.66963 13.3967C8.62642 13.3058 8.604 13.2065 8.604 13.1059C8.604 13.0053 8.62642 12.9059 8.66963 12.8151C8.70998 12.7347 8.77093 12.6665 8.84626 12.6173C8.91978 12.5695 9.0058 12.5446 9.09347 12.5456C9.14778 12.545 9.20178 12.5539 9.25302 12.5719C9.29824 12.588 9.3408 12.6107 9.37932 12.6393C9.41086 12.6623 9.43874 12.6899 9.46202 12.7211C9.47846 12.741 9.48863 12.7652 9.49123 12.7908L9.41865 12.8171V12.6697C9.41821 12.6535 9.42103 12.6374 9.42693 12.6223C9.43284 12.6072 9.44171 12.5934 9.45303 12.5818C9.46388 12.5701 9.47705 12.5607 9.49172 12.5543C9.50638 12.5479 9.52221 12.5447 9.5382 12.5447ZM9.13032 13.4436C9.1855 13.4447 9.23971 13.429 9.28583 13.3987C9.33072 13.3684 9.3666 13.3266 9.38966 13.2776C9.41515 13.224 9.42799 13.1652 9.42719 13.1059C9.42817 13.0459 9.41533 12.9864 9.38966 12.9322C9.3666 12.8832 9.33072 12.8413 9.28583 12.811C9.23971 12.7807 9.1855 12.7651 9.13032 12.7661C9.07579 12.7652 9.02227 12.7809 8.97683 12.811C8.93188 12.8413 8.89593 12.8832 8.87278 12.9322C8.84719 12.9864 8.83443 13.0459 8.83548 13.1059C8.83459 13.1652 8.84736 13.224 8.87278 13.2776C8.89593 13.3266 8.93188 13.3684 8.97683 13.3987C9.02232 13.4287 9.07584 13.4442 9.13032 13.4432V13.4436Z" fill="white"/>
<path d="M10.4997 12.5853C10.5146 12.5849 10.5294 12.5876 10.5433 12.593C10.5571 12.5985 10.5698 12.6067 10.5804 12.6172C10.6011 12.6386 10.6127 12.6672 10.6127 12.697C10.6127 12.7268 10.6011 12.7554 10.5804 12.7768C10.5697 12.7871 10.5571 12.7952 10.5432 12.8006C10.5293 12.8059 10.5145 12.8085 10.4997 12.808H9.96461C9.94973 12.8084 9.93492 12.8059 9.92103 12.8005C9.90714 12.7951 9.89445 12.7871 9.88371 12.7768C9.86308 12.7553 9.85156 12.7267 9.85156 12.697C9.85156 12.6672 9.86308 12.6386 9.88371 12.6172C9.89445 12.6069 9.90714 12.5988 9.92103 12.5935C9.93492 12.5881 9.94973 12.5856 9.96461 12.586L10.4997 12.5853ZM10.4772 12.1511C10.5066 12.1511 10.5358 12.1552 10.564 12.1633C10.5905 12.1703 10.6148 12.1838 10.6348 12.2026C10.6442 12.2119 10.6516 12.2231 10.6565 12.2354C10.6614 12.2478 10.6636 12.261 10.6631 12.2743C10.6638 12.2889 10.6616 12.3035 10.6566 12.3172C10.6515 12.3309 10.6437 12.3435 10.6336 12.3541C10.625 12.3633 10.6145 12.3706 10.6029 12.3756C10.5913 12.3807 10.5788 12.3833 10.5662 12.3833C10.5478 12.3823 10.5296 12.3793 10.5118 12.3743C10.4887 12.3683 10.4649 12.3652 10.441 12.3651C10.4133 12.3633 10.3858 12.3713 10.3633 12.3875C10.3462 12.4008 10.3333 12.4187 10.326 12.439C10.3198 12.4555 10.3164 12.4729 10.3159 12.4905V13.5224C10.3163 13.5386 10.3135 13.5547 10.3076 13.5698C10.3017 13.5849 10.2928 13.5987 10.2815 13.6103C10.2583 13.6329 10.2271 13.6456 10.1947 13.6456C10.1623 13.6456 10.1312 13.6329 10.108 13.6103C10.0967 13.5987 10.0878 13.5849 10.0819 13.5698C10.076 13.5547 10.0732 13.5386 10.0736 13.5224V12.4923C10.0728 12.4471 10.0813 12.4023 10.0987 12.3606C10.116 12.3189 10.1419 12.2812 10.1745 12.25C10.2419 12.1842 10.3429 12.1513 10.4774 12.1511H10.4772Z" fill="white"/>
<path d="M11.2527 13.6654C11.1489 13.668 11.0462 13.6433 10.955 13.5937C10.8733 13.5483 10.8061 13.4807 10.761 13.3989C10.7153 13.3132 10.692 13.2173 10.6936 13.1202C10.6905 13.0122 10.7159 12.9053 10.7673 12.8103C10.8128 12.7285 10.8794 12.6605 10.9601 12.6132C11.0368 12.5683 11.1239 12.5447 11.2127 12.5447C11.28 12.5444 11.3465 12.5589 11.4076 12.5872C11.4685 12.6152 11.5237 12.6546 11.5701 12.7031C11.6176 12.7527 11.6557 12.8106 11.6824 12.8739C11.71 12.939 11.7241 13.009 11.7238 13.0798C11.7236 13.0949 11.7201 13.1097 11.7136 13.1234C11.7071 13.137 11.6977 13.149 11.686 13.1586C11.6623 13.1785 11.6322 13.1892 11.6013 13.1888H10.8287L10.7682 12.9865H11.5098L11.4649 13.0267V12.9723C11.4624 12.9339 11.4479 12.8972 11.4235 12.8674C11.3984 12.8362 11.3666 12.811 11.3305 12.7937C11.2938 12.7755 11.2534 12.7661 11.2125 12.7663C11.1745 12.7661 11.1366 12.7715 11.1002 12.7824C11.0662 12.793 11.0353 12.8118 11.0103 12.8371C10.9824 12.8663 10.9617 12.9015 10.9496 12.94C10.9334 12.993 10.9258 13.0482 10.9271 13.1036C10.9249 13.1681 10.9405 13.232 10.9721 13.2883C10.9995 13.3355 11.0388 13.3746 11.0862 13.4017C11.1335 13.4288 11.1872 13.4429 11.2417 13.4427C11.2818 13.4437 11.3219 13.4397 11.3611 13.4308C11.3862 13.4245 11.4104 13.4146 11.4327 13.4013C11.4507 13.3899 11.4674 13.3802 11.4822 13.3721C11.503 13.3609 11.526 13.3547 11.5496 13.3539C11.563 13.3537 11.5763 13.3562 11.5887 13.3612C11.6012 13.3662 11.6125 13.3736 11.6221 13.383C11.6316 13.3923 11.6393 13.4035 11.6445 13.4159C11.6497 13.4282 11.6524 13.4414 11.6525 13.4548C11.6515 13.4746 11.6459 13.4939 11.6361 13.5111C11.6263 13.5283 11.6126 13.543 11.5961 13.5539C11.552 13.5883 11.502 13.6147 11.4487 13.6317C11.3857 13.6539 11.3195 13.6653 11.2527 13.6654Z" fill="white"/>
<defs>
<linearGradient id="paint0_linear_5741_33632" x1="2.31178" y1="3.26462" x2="15.1008" y2="14.0855" gradientUnits="userSpaceOnUse">
<stop stop-color="#FAA51A"/>
<stop offset="1" stop-color="#F47820"/>
</linearGradient>
</defs>
</svg>
