<svg width="24" height="24" viewBox="0 0 24 24" fill="none" xmlns="http://www.w3.org/2000/svg">
<path fill-rule="evenodd" clip-rule="evenodd" d="M0 12C0 5.37258 5.37258 0 12 0C18.6274 0 24 5.37258 24 12C24 18.6274 18.6274 24 12 24C5.37258 24 0 18.6274 0 12Z" fill="#0077B5"/>
<circle cx="12" cy="12" r="12" fill="url(#paint0_linear_6449_36376)"/>
<path fill-rule="evenodd" clip-rule="evenodd" d="M12 4C9.82733 4 9.5549 4.00921 8.70161 4.04814C7.8501 4.08698 7.26855 4.22223 6.7597 4.42001C6.23363 4.62442 5.78748 4.89797 5.34271 5.34271C4.89797 5.78748 4.62442 6.23363 4.42001 6.7597C4.22223 7.26855 4.08698 7.8501 4.04814 8.70161C4.00921 9.5549 4 9.82733 4 12C4 14.1727 4.00921 14.4451 4.04814 15.2984C4.08698 16.1499 4.22223 16.7314 4.42001 17.2403C4.62442 17.7664 4.89797 18.2125 5.34271 18.6573C5.78748 19.102 6.23363 19.3756 6.7597 19.58C7.26855 19.7778 7.8501 19.913 8.70161 19.9519C9.5549 19.9908 9.82733 20 12 20C14.1727 20 14.4451 19.9908 15.2984 19.9519C16.1499 19.913 16.7314 19.7778 17.2403 19.58C17.7664 19.3756 18.2125 19.102 18.6573 18.6573C19.102 18.2125 19.3756 17.7664 19.58 17.2403C19.7778 16.7314 19.913 16.1499 19.9519 15.2984C19.9908 14.4451 20 14.1727 20 12C20 9.82733 19.9908 9.5549 19.9519 8.70161C19.913 7.8501 19.7778 7.26855 19.58 6.7597C19.3756 6.23363 19.102 5.78748 18.6573 5.34271C18.2125 4.89797 17.7664 4.62442 17.2403 4.42001C16.7314 4.22223 16.1499 4.08698 15.2984 4.04814C14.4451 4.00921 14.1727 4 12 4ZM12 5.44144C14.1361 5.44144 14.3891 5.4496 15.2327 5.48809C16.0127 5.52366 16.4363 5.65398 16.7182 5.76354C17.0916 5.90867 17.3581 6.08202 17.638 6.36198C17.918 6.64191 18.0913 6.90841 18.2365 7.28183C18.346 7.56373 18.4763 7.98732 18.5119 8.76731C18.5504 9.61088 18.5586 9.86391 18.5586 12C18.5586 14.1361 18.5504 14.3891 18.5119 15.2327C18.4763 16.0127 18.346 16.4363 18.2365 16.7182C18.0913 17.0916 17.918 17.3581 17.638 17.638C17.3581 17.918 17.0916 18.0913 16.7182 18.2365C16.4363 18.346 16.0127 18.4763 15.2327 18.5119C14.3892 18.5504 14.1362 18.5586 12 18.5586C9.86375 18.5586 9.61079 18.5504 8.76731 18.5119C7.98732 18.4763 7.56373 18.346 7.28183 18.2365C6.90841 18.0913 6.64191 17.918 6.36198 17.638C6.08205 17.3581 5.90867 17.0916 5.76354 16.7182C5.65398 16.4363 5.52366 16.0127 5.48809 15.2327C5.4496 14.3891 5.44144 14.1361 5.44144 12C5.44144 9.86391 5.4496 9.61088 5.48809 8.76731C5.52366 7.98732 5.65398 7.56373 5.76354 7.28183C5.90867 6.90841 6.08202 6.64191 6.36198 6.36198C6.64191 6.08202 6.90841 5.90867 7.28183 5.76354C7.56373 5.65398 7.98732 5.52366 8.76731 5.48809C9.61088 5.4496 9.86391 5.44144 12 5.44144Z" fill="white"/>
<path fill-rule="evenodd" clip-rule="evenodd" d="M12.0002 14.6669C10.5274 14.6669 9.33353 13.473 9.33353 12.0002C9.33353 10.5274 10.5274 9.33353 12.0002 9.33353C13.473 9.33353 14.6669 10.5274 14.6669 12.0002C14.6669 13.473 13.473 14.6669 12.0002 14.6669ZM12.0002 7.89209C9.73134 7.89209 7.89209 9.73134 7.89209 12.0002C7.89209 14.2691 9.73134 16.1083 12.0002 16.1083C14.2691 16.1083 16.1083 14.2691 16.1083 12.0002C16.1083 9.73134 14.2691 7.89209 12.0002 7.89209Z" fill="white"/>
<path fill-rule="evenodd" clip-rule="evenodd" d="M17.2305 7.72955C17.2305 8.25975 16.8007 8.68953 16.2705 8.68953C15.7404 8.68953 15.3105 8.25975 15.3105 7.72955C15.3105 7.19935 15.7404 6.76953 16.2705 6.76953C16.8007 6.76953 17.2305 7.19935 17.2305 7.72955Z" fill="white"/>
<defs>
<linearGradient id="paint0_linear_6449_36376" x1="12" y1="36" x2="36" y2="12" gradientUnits="userSpaceOnUse">
<stop stop-color="#FFD522"/>
<stop offset="0.497382" stop-color="#F1000B"/>
<stop offset="1" stop-color="#B900B3"/>
</linearGradient>
</defs>
</svg>
