<svg width="24" height="24" viewBox="0 0 24 24" fill="none" xmlns="http://www.w3.org/2000/svg">
<path fill-rule="evenodd" clip-rule="evenodd" d="M0 12C0 5.37258 5.37258 0 12 0C18.6274 0 24 5.37258 24 12C24 18.6274 18.6274 24 12 24C5.37258 24 0 18.6274 0 12Z" fill="#0077B5"/>
<path fill-rule="evenodd" clip-rule="evenodd" d="M8.65997 7.41135C8.64232 6.6102 8.06941 6 7.1391 6C6.20879 6 5.60059 6.6102 5.60059 7.41135C5.60059 8.1959 6.19081 8.82367 7.1038 8.82367H7.12118C8.06941 8.82367 8.65997 8.1959 8.65997 7.41135ZM8.48118 9.93945H5.76172V18.1103H8.48118V9.93945ZM15.1573 9.74707C16.9469 9.74707 18.2885 10.9151 18.2885 13.4249L18.2884 18.1098H15.569V13.7384C15.569 12.6404 15.1755 11.8911 14.191 11.8911C13.4397 11.8911 12.9922 12.3962 12.7957 12.8841C12.7238 13.0589 12.7061 13.3025 12.7061 13.5467V18.11H9.98633C9.98633 18.11 10.0222 10.7059 9.98633 9.93915H12.7061V11.0965C13.0671 10.5401 13.7135 9.74707 15.1573 9.74707Z" fill="white"/>
</svg>
