<svg width="24" height="24" viewBox="0 0 24 24" fill="none" xmlns="http://www.w3.org/2000/svg">
<circle cx="12" cy="12" r="12" fill="url(#paint0_linear_5741_33723)"/>
<path d="M5.39368 12.0202C8.88334 10.5384 11.2103 9.5615 12.3746 9.08952C15.699 7.74191 16.3897 7.50781 16.84 7.50008C16.939 7.49838 17.1604 7.5223 17.3038 7.63572C17.4249 7.73149 17.4583 7.86087 17.4742 7.95167C17.4901 8.04247 17.51 8.24932 17.4942 8.41095C17.3141 10.2557 16.5346 14.7325 16.138 16.7987C15.9702 17.673 15.6398 17.9661 15.3199 17.9948C14.6248 18.0571 14.0969 17.5471 13.4236 17.1169C12.3701 16.4438 11.7749 16.0248 10.7522 15.368C9.57034 14.6089 10.3365 14.1917 11.01 13.5099C11.1863 13.3315 14.2492 10.6163 14.3084 10.37C14.3159 10.3392 14.3227 10.2244 14.2527 10.1637C14.1828 10.1031 14.0794 10.1238 14.0049 10.1403C13.8992 10.1637 12.2162 11.2479 8.95566 13.393C8.47792 13.7127 8.04521 13.8685 7.6575 13.8603C7.23009 13.8513 6.40793 13.6248 5.79673 13.4312C5.04708 13.1937 4.45127 13.0681 4.50315 12.6647C4.53017 12.4547 4.82702 12.2398 5.39368 12.0202Z" fill="white"/>
<defs>
<linearGradient id="paint0_linear_5741_33723" x1="0.0889995" y1="0" x2="0.0889995" y2="23.822" gradientUnits="userSpaceOnUse">
<stop stop-color="#2AABEE"/>
<stop offset="1" stop-color="#229ED9"/>
</linearGradient>
</defs>
</svg>
