<svg width="24" height="24" viewBox="0 0 24 24" fill="none" xmlns="http://www.w3.org/2000/svg">
<circle cx="12" cy="12" r="12" fill="#1DA1F2"/>
<path d="M9.03168 18.5003C15.0694 18.5003 18.3718 13.4981 18.3718 9.16018C18.3718 9.0181 18.3718 8.87666 18.3622 8.73586C19.0047 8.27117 19.5593 7.69579 20 7.03666C19.4009 7.30227 18.7654 7.47637 18.1146 7.55314C18.7999 7.14294 19.3128 6.49767 19.5578 5.73746C18.9134 6.11987 18.2084 6.38935 17.4733 6.53426C16.9783 6.00798 16.3237 5.65949 15.6108 5.54272C14.8978 5.42595 14.1663 5.54741 13.5293 5.8883C12.8923 6.22919 12.3855 6.77051 12.0872 7.4285C11.7888 8.08648 11.7157 8.82444 11.879 9.52818C10.5739 9.46272 9.29717 9.12354 8.13164 8.53267C6.9661 7.9418 5.93784 7.11244 5.1136 6.09842C4.69382 6.82109 4.56525 7.67658 4.75407 8.49071C4.94288 9.30484 5.43489 10.0164 6.12992 10.4805C5.60749 10.4652 5.09643 10.3243 4.64 10.0696V10.1112C4.64021 10.8691 4.90257 11.6036 5.38258 12.1901C5.86259 12.7766 6.53071 13.1791 7.2736 13.3291C6.79032 13.461 6.28325 13.4802 5.79136 13.3855C6.00121 14.0377 6.40962 14.608 6.95949 15.0168C7.50937 15.4255 8.17322 15.6522 8.85824 15.6651C8.17763 16.2001 7.39821 16.5957 6.56458 16.8291C5.73096 17.0626 4.85948 17.1294 4 17.0258C5.50122 17.9891 7.24795 18.5001 9.03168 18.4978" fill="white"/>
</svg>
